<svg width="783" height="270" viewBox="0 0 783 270" fill="none" xmlns="http://www.w3.org/2000/svg">
<path fill-rule="evenodd" clip-rule="evenodd" d="M121.634 68.4144L162.198 28.9598L145.704 12.0013L105.14 51.4559L121.634 68.4144ZM88.1346 33.2755L84.1069 89.7192L60.5097 88.0354L64.5374 31.5917L88.1346 33.2755ZM61.0767 128.412L33.7895 78.8384L13.0646 90.2463L40.3517 139.82L61.0767 128.412ZM68.0092 173.497L18.3176 146.426L7 167.2L56.6916 194.271L68.0092 173.497ZM219.715 71.3486L163.289 75.6283L161.5 52.0388L217.925 47.7592L219.715 71.3486ZM194.641 106.966L243.565 135.4L255.453 114.947L206.528 86.5125L194.641 106.966ZM227.611 202.128L201.163 152.102L222.078 141.045L248.525 191.071L227.611 202.128ZM180.781 193.745L174.361 249.967L197.866 252.651L204.285 196.429L180.781 193.745ZM100.009 252.551L141.441 214.01L157.554 231.331L116.122 269.873L100.009 252.551ZM95.311 207.262L39.1774 214.413L42.1669 237.88L98.3005 230.729L95.311 207.262Z" fill="#00E785"/>
<mask id="path-2-outside-1_139_226" maskUnits="userSpaceOnUse" x="0" y="0" width="252" height="262" fill="black">
<rect fill="white" width="252" height="262"/>
<path fill-rule="evenodd" clip-rule="evenodd" d="M116.634 58.4131L157.198 18.9585L140.704 2L100.14 41.4546L116.634 58.4131ZM83.1346 23.2742L79.1069 79.7179L55.5097 78.034L59.5374 21.5903L83.1346 23.2742ZM56.0767 118.411L28.7895 68.8371L8.06456 80.2449L35.3517 129.818L56.0767 118.411ZM63.0092 163.496L13.3176 136.424L2 157.199L51.6916 184.27L63.0092 163.496ZM214.715 61.3473L158.289 65.6269L156.5 42.0375L212.925 37.7578L214.715 61.3473ZM189.641 96.9648L238.565 125.399L250.453 104.945L201.528 76.5111L189.641 96.9648ZM222.611 192.127L196.163 142.101L217.078 131.044L243.525 181.07L222.611 192.127ZM175.781 183.744L169.361 239.966L192.866 242.65L199.285 186.428L175.781 183.744ZM95.0091 242.55L136.441 204.008L152.554 221.33L111.122 259.872L95.0091 242.55ZM90.311 197.26L34.1774 204.411L37.1669 227.879L93.3005 220.728L90.311 197.26Z"/>
</mask>
<path d="M157.198 18.9585L157.896 19.6753L158.612 18.9781L157.915 18.2613L157.198 18.9585ZM116.634 58.4131L115.917 59.1103L116.614 59.8271L117.331 59.1299L116.634 58.4131ZM140.704 2L141.421 1.30277L140.723 0.585922L140.006 1.28316L140.704 2ZM100.14 41.4546L99.4423 40.7377L98.7254 41.4349L99.4227 42.1518L100.14 41.4546ZM79.1069 79.7179L79.0357 80.7153L80.0331 80.7865L80.1043 79.7891L79.1069 79.7179ZM83.1346 23.2742L84.132 23.3453L84.2032 22.3479L83.2057 22.2767L83.1346 23.2742ZM55.5097 78.034L54.5122 77.9629L54.441 78.9603L55.4385 79.0315L55.5097 78.034ZM59.5374 21.5903L59.6086 20.5929L58.6111 20.5217L58.5399 21.5191L59.5374 21.5903ZM28.7895 68.8371L29.6656 68.3549L29.1834 67.4788L28.3073 67.9611L28.7895 68.8371ZM56.0767 118.411L56.5589 119.287L57.4349 118.804L56.9527 117.928L56.0767 118.411ZM8.06456 80.2449L7.58235 79.3689L6.7063 79.8511L7.18851 80.7271L8.06456 80.2449ZM35.3517 129.818L34.4757 130.301L34.9579 131.177L35.8339 130.694L35.3517 129.818ZM13.3176 136.424L13.796 135.546L12.9178 135.068L12.4394 135.946L13.3176 136.424ZM63.0092 163.496L63.8874 163.974L64.3658 163.096L63.4876 162.617L63.0092 163.496ZM2 157.199L1.12186 156.72L0.643458 157.598L1.5216 158.077L2 157.199ZM51.6916 184.27L51.2132 185.148L52.0914 185.627L52.5698 184.748L51.6916 184.27ZM158.289 65.6269L157.292 65.7026L157.368 66.6997L158.365 66.6241L158.289 65.6269ZM214.715 61.3473L214.79 62.3444L215.787 62.2688L215.712 61.2716L214.715 61.3473ZM156.5 42.0375L156.425 41.0404L155.427 41.116L155.503 42.1131L156.5 42.0375ZM212.925 37.7578L213.922 37.6822L213.847 36.6851L212.85 36.7607L212.925 37.7578ZM238.565 125.399L238.063 126.264L238.927 126.766L239.43 125.902L238.565 125.399ZM189.641 96.9648L188.776 96.4623L188.274 97.3269L189.138 97.8293L189.641 96.9648ZM250.453 104.945L251.317 105.448L251.82 104.583L250.955 104.081L250.453 104.945ZM201.528 76.5111L202.031 75.6465L201.166 75.144L200.663 76.0086L201.528 76.5111ZM196.163 142.101L195.696 141.217L194.812 141.684L195.279 142.568L196.163 142.101ZM222.611 192.127L221.727 192.594L222.194 193.478L223.079 193.011L222.611 192.127ZM217.078 131.044L217.962 130.576L217.494 129.692L216.61 130.16L217.078 131.044ZM243.525 181.07L243.993 181.954L244.877 181.487L244.409 180.603L243.525 181.07ZM169.361 239.966L168.368 239.852L168.254 240.846L169.248 240.959L169.361 239.966ZM175.781 183.744L175.894 182.75L174.901 182.637L174.787 183.63L175.781 183.744ZM192.866 242.65L192.752 243.643L193.746 243.757L193.859 242.763L192.866 242.65ZM199.285 186.428L200.279 186.541L200.392 185.548L199.399 185.434L199.285 186.428ZM136.441 204.008L137.174 203.327L136.492 202.595L135.76 203.276L136.441 204.008ZM95.0091 242.55L94.328 241.818L93.5958 242.499L94.2769 243.231L95.0091 242.55ZM152.554 221.33L153.236 222.062L153.968 221.381L153.287 220.648L152.554 221.33ZM111.122 259.872L110.39 260.553L111.071 261.285L111.803 260.604L111.122 259.872ZM34.1774 204.411L34.0511 203.419L33.0591 203.546L33.1854 204.538L34.1774 204.411ZM90.311 197.26L91.303 197.134L91.1767 196.142L90.1847 196.269L90.311 197.26ZM37.1669 227.879L36.175 228.005L36.3013 228.997L37.2933 228.871L37.1669 227.879ZM93.3005 220.728L93.4269 221.72L94.4189 221.594L94.2925 220.602L93.3005 220.728ZM156.501 18.2417L115.937 57.6962L117.331 59.1299L157.896 19.6753L156.501 18.2417ZM139.987 2.69723L156.481 19.6557L157.915 18.2613L141.421 1.30277L139.987 2.69723ZM100.837 42.1714L141.401 2.71684L140.006 1.28316L99.4423 40.7377L100.837 42.1714ZM117.351 57.7158L100.856 40.7573L99.4227 42.1518L115.917 59.1103L117.351 57.7158ZM80.1043 79.7891L84.132 23.3453L82.1371 23.203L78.1094 79.6467L80.1043 79.7891ZM55.4385 79.0315L79.0357 80.7153L79.178 78.7204L55.5808 77.0366L55.4385 79.0315ZM58.5399 21.5191L54.5122 77.9629L56.5071 78.1052L60.5348 21.6615L58.5399 21.5191ZM83.2057 22.2767L59.6086 20.5929L59.4662 22.5878L83.0634 24.2716L83.2057 22.2767ZM27.9135 69.3193L55.2006 118.893L56.9527 117.928L29.6656 68.3549L27.9135 69.3193ZM8.54678 81.121L29.2717 69.7132L28.3073 67.9611L7.58235 79.3689L8.54678 81.121ZM36.2278 129.336L8.94062 79.7627L7.18851 80.7271L34.4757 130.301L36.2278 129.336ZM55.5945 117.534L34.8695 128.942L35.8339 130.694L56.5589 119.287L55.5945 117.534ZM12.8392 137.302L62.5308 164.374L63.4876 162.617L13.796 135.546L12.8392 137.302ZM2.87814 157.677L14.1957 136.903L12.4394 135.946L1.12186 156.72L2.87814 157.677ZM52.17 183.392L2.4784 156.321L1.5216 158.077L51.2132 185.148L52.17 183.392ZM62.1311 163.017L50.8135 183.792L52.5698 184.748L63.8874 163.974L62.1311 163.017ZM158.365 66.6241L214.79 62.3444L214.639 60.3501L158.214 64.6298L158.365 66.6241ZM155.503 42.1131L157.292 65.7026L159.286 65.5513L157.497 41.9619L155.503 42.1131ZM212.85 36.7607L156.425 41.0404L156.576 43.0346L213.001 38.755L212.85 36.7607ZM215.712 61.2716L213.922 37.6822L211.928 37.8335L213.717 61.4229L215.712 61.2716ZM239.068 124.534L190.143 96.1002L189.138 97.8293L238.063 126.264L239.068 124.534ZM249.588 104.443L237.701 124.897L239.43 125.902L251.317 105.448L249.588 104.443ZM201.026 77.3757L249.95 105.81L250.955 104.081L202.031 75.6465L201.026 77.3757ZM190.505 97.4672L202.393 77.0136L200.663 76.0086L188.776 96.4623L190.505 97.4672ZM195.279 142.568L221.727 192.594L223.495 191.66L197.047 141.633L195.279 142.568ZM216.61 130.16L195.696 141.217L196.631 142.985L217.545 131.928L216.61 130.16ZM244.409 180.603L217.962 130.576L216.193 131.511L242.641 181.537L244.409 180.603ZM223.079 193.011L243.993 181.954L243.058 180.186L222.144 191.243L223.079 193.011ZM170.355 240.079L176.775 183.857L174.787 183.63L168.368 239.852L170.355 240.079ZM192.979 241.656L169.475 238.972L169.248 240.959L192.752 243.643L192.979 241.656ZM198.292 186.314L191.872 242.536L193.859 242.763L200.279 186.541L198.292 186.314ZM175.668 184.737L199.172 187.421L199.399 185.434L175.894 182.75L175.668 184.737ZM135.76 203.276L94.328 241.818L95.6902 243.282L137.122 204.74L135.76 203.276ZM153.287 220.648L137.174 203.327L135.709 204.689L151.822 222.011L153.287 220.648ZM111.803 260.604L153.236 222.062L151.873 220.597L110.441 259.139L111.803 260.604ZM94.2769 243.231L110.39 260.553L111.854 259.19L95.7412 241.869L94.2769 243.231ZM34.3038 205.403L90.4374 198.252L90.1847 196.269L34.0511 203.419L34.3038 205.403ZM38.1589 227.752L35.1694 204.285L33.1854 204.538L36.175 228.005L38.1589 227.752ZM93.1742 219.736L37.0406 226.887L37.2933 228.871L93.4269 221.72L93.1742 219.736ZM89.3191 197.387L92.3086 220.854L94.2925 220.602L91.303 197.134L89.3191 197.387Z" fill="black" mask="url(#path-2-outside-1_139_226)"/>
<mask id="path-4-inside-2_139_226" fill="white">
<path fill-rule="evenodd" clip-rule="evenodd" d="M116.634 58.4131L157.198 18.9585L140.704 2L100.14 41.4546L116.634 58.4131ZM83.1346 23.2742L79.1069 79.7179L55.5097 78.034L59.5374 21.5903L83.1346 23.2742ZM56.0767 118.411L28.7895 68.8371L8.06456 80.2449L35.3517 129.818L56.0767 118.411ZM63.0092 163.496L13.3176 136.424L2 157.199L51.6916 184.27L63.0092 163.496ZM214.715 61.3473L158.289 65.6269L156.5 42.0375L212.925 37.7578L214.715 61.3473ZM189.641 96.9648L238.565 125.399L250.453 104.945L201.528 76.5111L189.641 96.9648ZM222.611 192.127L196.163 142.101L217.078 131.044L243.525 181.07L222.611 192.127ZM175.781 183.744L169.361 239.966L192.866 242.65L199.285 186.428L175.781 183.744ZM95.0091 242.55L136.441 204.008L152.554 221.33L111.122 259.872L95.0091 242.55ZM90.311 197.26L34.1774 204.411L37.1669 227.879L93.3005 220.728L90.311 197.26Z"/>
</mask>
<path d="M157.198 18.9585L159.29 21.109L161.441 19.0173L159.349 16.8668L157.198 18.9585ZM116.634 58.4131L114.484 60.5048L116.575 62.6553L118.726 60.5636L116.634 58.4131ZM140.704 2L142.854 -0.0917025L140.763 -2.24223L138.612 -0.15053L140.704 2ZM100.14 41.4546L98.0478 39.304L95.8973 41.3957L97.989 43.5463L100.14 41.4546ZM79.1069 79.7179L78.8933 82.7103L81.8857 82.9238L82.0993 79.9314L79.1069 79.7179ZM83.1346 23.2742L86.127 23.4877L86.3405 20.4953L83.3481 20.2818L83.1346 23.2742ZM55.5097 78.034L52.5173 77.8205L52.3037 80.8129L55.2961 81.0264L55.5097 78.034ZM59.5374 21.5903L59.7509 18.5979L56.7585 18.3844L56.545 21.3768L59.5374 21.5903ZM28.7895 68.8371L31.4177 67.3905L29.971 64.7623L27.3429 66.2089L28.7895 68.8371ZM56.0767 118.411L57.5233 121.039L60.1515 119.592L58.7048 116.964L56.0767 118.411ZM8.06456 80.2449L6.61792 77.6168L3.98976 79.0634L5.4364 81.6916L8.06456 80.2449ZM35.3517 129.818L32.7236 131.265L34.1702 133.893L36.7984 132.447L35.3517 129.818ZM13.3176 136.424L14.7528 133.79L12.1184 132.355L10.6832 134.989L13.3176 136.424ZM63.0092 163.496L65.6437 164.931L67.0789 162.296L64.4444 160.861L63.0092 163.496ZM2 157.199L-0.634427 155.763L-2.06962 158.398L0.564802 159.833L2 157.199ZM51.6916 184.27L50.2565 186.904L52.8909 188.34L54.3261 185.705L51.6916 184.27ZM158.289 65.6269L155.298 65.8538L155.525 68.8452L158.516 68.6183L158.289 65.6269ZM214.715 61.3473L214.941 64.3387L217.933 64.1118L217.706 61.1204L214.715 61.3473ZM156.5 42.0375L156.273 39.0461L153.282 39.273L153.509 42.2644L156.5 42.0375ZM212.925 37.7578L215.917 37.5309L215.69 34.5395L212.698 34.7664L212.925 37.7578ZM238.565 125.399L237.058 127.993L239.651 129.5L241.159 126.907L238.565 125.399ZM189.641 96.9648L187.047 95.4573L185.539 98.0511L188.133 99.5585L189.641 96.9648ZM250.453 104.945L253.046 106.453L254.554 103.859L251.96 102.352L250.453 104.945ZM201.528 76.5111L203.035 73.9174L200.442 72.4099L198.934 75.0036L201.528 76.5111ZM196.163 142.101L194.761 139.449L192.109 140.851L193.511 143.503L196.163 142.101ZM222.611 192.127L219.959 193.529L221.361 196.181L224.013 194.779L222.611 192.127ZM217.078 131.044L219.73 129.642L218.328 126.99L215.675 128.392L217.078 131.044ZM243.525 181.07L244.928 183.722L247.58 182.32L246.178 179.668L243.525 181.07ZM169.361 239.966L166.381 239.625L166.04 242.606L169.021 242.946L169.361 239.966ZM175.781 183.744L176.121 180.763L173.141 180.423L172.8 183.404L175.781 183.744ZM192.866 242.65L192.525 245.63L195.506 245.971L195.846 242.99L192.866 242.65ZM199.285 186.428L202.266 186.768L202.606 183.787L199.626 183.447L199.285 186.428ZM136.441 204.008L138.638 201.965L136.595 199.768L134.398 201.812L136.441 204.008ZM95.0091 242.55L92.9657 240.354L90.7692 242.397L92.8125 244.593L95.0091 242.55ZM152.554 221.33L154.598 223.526L156.794 221.483L154.751 219.286L152.554 221.33ZM111.122 259.872L108.926 261.915L110.969 264.111L113.165 262.068L111.122 259.872ZM34.1774 204.411L33.7983 201.435L30.8224 201.814L31.2015 204.79L34.1774 204.411ZM90.311 197.26L93.287 196.881L92.9079 193.905L89.9319 194.285L90.311 197.26ZM37.1669 227.879L34.191 228.258L34.5701 231.234L37.546 230.855L37.1669 227.879ZM93.3005 220.728L93.6796 223.704L96.6556 223.325L96.2765 220.349L93.3005 220.728ZM155.107 16.808L114.542 56.2625L118.726 60.5636L159.29 21.109L155.107 16.808ZM138.553 4.0917L155.048 21.0502L159.349 16.8668L142.854 -0.0917025L138.553 4.0917ZM102.231 43.6051L142.795 4.15053L138.612 -0.15053L98.0478 39.304L102.231 43.6051ZM118.785 56.3214L102.29 39.3629L97.989 43.5463L114.484 60.5048L118.785 56.3214ZM82.0993 79.9314L86.127 23.4877L80.1422 23.0606L76.1145 79.5043L82.0993 79.9314ZM55.2961 81.0264L78.8933 82.7103L79.3204 76.7255L55.7232 75.0416L55.2961 81.0264ZM56.545 21.3768L52.5173 77.8205L58.5021 78.2476L62.5298 21.8039L56.545 21.3768ZM83.3481 20.2818L59.7509 18.5979L59.3238 24.5827L82.921 26.2666L83.3481 20.2818ZM26.1614 70.2837L53.4485 119.857L58.7048 116.964L31.4177 67.3905L26.1614 70.2837ZM9.5112 82.8731L30.2362 71.4653L27.3429 66.2089L6.61792 77.6168L9.5112 82.8731ZM37.9799 128.372L10.6927 78.7983L5.4364 81.6916L32.7236 131.265L37.9799 128.372ZM54.63 115.782L33.9051 127.19L36.7984 132.447L57.5233 121.039L54.63 115.782ZM11.8824 139.059L61.574 166.13L64.4444 160.861L14.7528 133.79L11.8824 139.059ZM4.63443 158.634L15.952 137.859L10.6832 134.989L-0.634427 155.763L4.63443 158.634ZM53.1268 181.636L3.4352 154.564L0.564802 159.833L50.2565 186.904L53.1268 181.636ZM60.3748 162.06L49.0572 182.835L54.3261 185.705L65.6437 164.931L60.3748 162.06ZM158.516 68.6183L214.941 64.3387L214.488 58.3559L158.062 62.6355L158.516 68.6183ZM153.509 42.2644L155.298 65.8538L161.281 65.4001L159.492 41.8106L153.509 42.2644ZM212.698 34.7664L156.273 39.0461L156.727 45.0289L213.152 40.7492L212.698 34.7664ZM217.706 61.1204L215.917 37.5309L209.934 37.9847L211.723 61.5742L217.706 61.1204ZM240.073 122.805L191.148 94.371L188.133 99.5585L237.058 127.993L240.073 122.805ZM247.859 103.438L235.971 123.892L241.159 126.907L253.046 106.453L247.859 103.438ZM200.021 79.1049L248.945 107.539L251.96 102.352L203.035 73.9174L200.021 79.1049ZM192.234 98.4722L204.122 78.0186L198.934 75.0036L187.047 95.4573L192.234 98.4722ZM193.511 143.503L219.959 193.529L225.263 190.725L198.815 140.699L193.511 143.503ZM215.675 128.392L194.761 139.449L197.565 144.753L218.48 133.696L215.675 128.392ZM246.178 179.668L219.73 129.642L214.425 132.446L240.873 182.472L246.178 179.668ZM224.013 194.779L244.928 183.722L242.123 178.418L221.209 189.475L224.013 194.779ZM172.342 240.306L178.762 184.084L172.8 183.404L166.381 239.625L172.342 240.306ZM193.206 239.669L169.702 236.985L169.021 242.946L192.525 245.63L193.206 239.669ZM196.305 186.087L189.885 242.309L195.846 242.99L202.266 186.768L196.305 186.087ZM175.441 186.725L198.945 189.408L199.626 183.447L176.121 180.763L175.441 186.725ZM134.398 201.812L92.9657 240.354L97.0524 244.747L138.485 206.205L134.398 201.812ZM154.751 219.286L138.638 201.965L134.245 206.051L150.358 223.373L154.751 219.286ZM113.165 262.068L154.598 223.526L150.511 219.133L109.079 257.675L113.165 262.068ZM92.8125 244.593L108.926 261.915L113.319 257.828L97.2056 240.507L92.8125 244.593ZM34.5565 207.387L90.6901 200.236L89.9319 194.285L33.7983 201.435L34.5565 207.387ZM40.1429 227.5L37.1534 204.032L31.2015 204.79L34.191 228.258L40.1429 227.5ZM92.9214 217.752L36.7878 224.903L37.546 230.855L93.6796 223.704L92.9214 217.752ZM87.3351 197.64L90.3246 221.107L96.2765 220.349L93.287 196.881L87.3351 197.64Z" fill="black" mask="url(#path-4-inside-2_139_226)"/>
<path d="M360.619 195.647C349.981 195.647 340.484 193.067 332.126 187.906C323.768 182.746 317.157 175.689 312.294 166.734C307.431 157.779 305 147.611 305 136.228C305 124.845 307.431 114.752 312.294 105.949C317.157 96.9943 323.768 90.0128 332.126 85.0042C340.484 79.844 349.981 77.2638 360.619 77.2638C369.129 77.2638 376.575 78.8574 382.957 82.0447C389.34 85.2319 394.507 89.7092 398.458 95.4766V29H427.635V192.915H401.649L398.458 176.751C394.811 181.76 389.948 186.161 383.869 189.955C377.943 193.75 370.193 195.647 360.619 195.647ZM366.773 170.149C376.195 170.149 383.869 167.038 389.796 160.815C395.874 154.44 398.914 146.321 398.914 136.455C398.914 126.59 395.874 118.546 389.796 112.323C383.869 105.949 376.195 102.762 366.773 102.762C357.504 102.762 349.829 105.873 343.751 112.096C337.672 118.318 334.633 126.362 334.633 136.228C334.633 146.093 337.672 154.213 343.751 160.587C349.829 166.962 357.504 170.149 366.773 170.149Z" fill="#080808"/>
<path d="M487.207 195.647C477.481 195.647 469.503 194.129 463.273 191.094C457.042 187.906 452.407 183.733 449.368 178.572C446.329 173.412 444.809 167.721 444.809 161.498C444.809 151.026 448.912 142.526 457.118 136C465.324 129.474 477.633 126.211 494.045 126.211H522.767V123.479C522.767 115.738 520.563 110.047 516.156 106.404C511.749 102.762 506.279 100.94 499.744 100.94C493.818 100.94 488.651 102.382 484.244 105.266C479.837 107.998 477.102 112.096 476.038 117.56H447.545C448.304 109.364 451.04 102.23 455.751 96.1596C460.613 90.0886 466.844 85.4596 474.442 82.2723C482.04 78.9333 490.55 77.2638 499.972 77.2638C516.08 77.2638 528.769 81.2858 538.039 89.3298C547.309 97.3738 551.944 108.757 551.944 123.479V192.915H527.098L524.362 174.702C521.019 180.773 516.308 185.782 510.23 189.728C504.303 193.674 496.629 195.647 487.207 195.647ZM493.818 172.881C502.176 172.881 508.634 170.149 513.193 164.685C517.904 159.221 520.867 152.467 522.083 144.423H497.237C489.487 144.423 483.94 145.865 480.597 148.749C477.253 151.481 475.582 154.896 475.582 158.994C475.582 163.395 477.253 166.81 480.597 169.238C483.94 171.667 488.347 172.881 493.818 172.881Z" fill="#080808"/>
<path d="M581.018 243L607.231 185.402H600.393L556.399 79.9957H588.084L619.768 159.449L652.82 79.9957H683.821L612.018 243H581.018Z" fill="#080808"/>
<path d="M763.985 62.466C758.667 62.466 754.26 60.8723 750.764 57.6851C747.421 54.4979 745.75 50.4759 745.75 45.6192C745.75 40.7624 747.421 36.8163 750.764 33.7808C754.26 30.5936 758.667 29 763.985 29C769.304 29 773.635 30.5936 776.978 33.7808C780.473 36.8163 782.221 40.7624 782.221 45.6192C782.221 50.4759 780.473 54.4979 776.978 57.6851C773.635 60.8723 769.304 62.466 763.985 62.466ZM749.397 192.915V79.9957H778.574V192.915H749.397Z" fill="#080808"/>
<path d="M688.372 192.915V104.355H672.872V79.9957H688.372V66.7915C688.372 53.1319 691.792 43.4184 698.63 37.6511C705.62 31.8837 715.042 29 726.895 29H739.432V53.8149H731.454C726.439 53.8149 722.868 54.8014 720.741 56.7745C718.613 58.7475 717.549 62.0865 717.549 66.7915V79.9957H741.94V104.355H717.549V192.915H688.372Z" fill="#080808"/>
<rect x="670" y="80" width="19" height="24.35" fill="#080808"/>
</svg>
